<?xml version="1.0" encoding="utf-8"?>
<svg version="1.1" id="Layer_1" xmlns="http://www.w3.org/2000/svg" xmlns:xlink="http://www.w3.org/1999/xlink" x="0px" y="0px"
	 viewBox="0 0 138 16.1" style="enable-background:new 0 0 138 16.1;" xml:space="preserve" fill="#000000">
<path fill-rule="evenodd" clip-rule="evenodd" d="M138,8l-0.3,0.3c-2.2,2.5-4.5,5-6.8,7.4l-0.3,0.3h-6.3c0.1-0.1,0.2-0.2,0.2-0.3c2.3-2.5,4.5-5,6.8-7.5
	c0.1-0.1,0.1-0.2,0.2-0.3c-0.1-0.1-0.2-0.2-0.2-0.3c-2.3-2.5-4.5-5-6.8-7.4c-0.1-0.1-0.2-0.2-0.2-0.3h6.3c0.1,0.1,0.1,0.2,0.2,0.3
	c2.3,2.5,4.5,5,6.8,7.4L138,8L138,8z"/>
<path fill-rule="evenodd" clip-rule="evenodd" d="M127.5,8c-1.1,0.4-2.2,0.7-3.3,1.1v3.4h-0.1c-0.6-0.9-1.3-1.8-1.9-2.7c-1.1,0.4-2.1,0.7-3.3,1.1
	c0.7-1,1.4-1.9,2-2.8c-0.7-0.9-1.3-1.8-2.1-2.8c1.2,0.4,2.2,0.7,3.3,1.1c0.6-0.9,1.3-1.8,1.9-2.7h0.1V7C125.3,7.3,126.4,7.7,127.5,8
	z M114.4,11v3.4h-10.2V1.6h10.2V5h-6.8v1.3h6.1v3.1h-6.1V11H114.4z M100.3,13.3c-0.7,0.7-1.5,1.1-2.5,1.3c-2.8,0.5-5.3,0.1-7.7-1.5
	c-0.1-0.1-0.3-0.2-0.4-0.3c-0.1,0-0.1-0.1-0.2-0.2l2.1-2.4c0.1,0.1,0.2,0.2,0.3,0.2c1.3,0.9,2.6,1.4,4.2,1.3c0.3,0,0.6-0.1,0.9-0.2
	c0.3-0.1,0.5-0.3,0.5-0.7s-0.2-0.6-0.5-0.7c-0.6-0.2-1.2-0.4-1.9-0.6c-1-0.3-2-0.6-3-1c-1.1-0.5-1.8-1.3-2-2.6c-0.3-2.2,0.8-4,3-4.5
	c2.6-0.7,5-0.3,7.3,1.3l0.1,0.1l0.1,0.1c-0.7,0.8-1.3,1.6-2,2.4l-1.2-0.6c-0.7-0.3-1.5-0.5-2.3-0.5c-0.2,0-0.5,0.1-0.7,0.2
	c-0.6,0.3-0.6,1-0.1,1.3c0.4,0.2,0.8,0.4,1.3,0.5c0.9,0.3,1.8,0.5,2.7,0.7c0.3,0.1,0.7,0.3,1,0.4C101.7,8.5,102.2,11.5,100.3,13.3z
	 M85.2,9.2c0.2-0.1,0.3-0.2,0.5-0.3c1.8-1.4,2.1-3.8,0.8-5.6c-0.9-1.1-2.1-1.7-3.5-1.7h-6.5v12.8h3.4V9.8h1.4c0.3,0,0.5,0.1,0.6,0.4
	c0.6,1.3,1.3,2.6,1.9,3.9c0.1,0.1,0.1,0.2,0.2,0.3h3.9C86.9,12.6,86.1,10.9,85.2,9.2z M82.8,6.3h-3V5h3c0.5,0,0.8,0.3,0.8,0.7
	C83.6,6,83.3,6.3,82.8,6.3z M66,5v1.3h6.1v3.1H66V11h6.8v3.4H62.5V1.6h10.3V5H66z M60.1,1.6c-1.4,4.3-2.8,8.5-4.2,12.8h-5.6
	c-1.4-4.2-2.8-8.5-4.2-12.8H50c0.9,3,1.9,6.1,2.9,9.2h0.3c1-3.1,1.9-6.1,2.9-9.2C56.1,1.6,60.1,1.6,60.1,1.6z M43.5,1.6v12.8h-3.9
	c-1.7-2.3-3.4-4.7-5.1-7.1h-0.1v7H31V1.6h3.5C36.3,4,38.1,6.3,40,8.8V1.6H43.5z M21.4,1.2c-3.8,0-6.9,3-7,6.8c0,3.8,3.1,6.8,6.9,6.8
	s7-3,7-6.8S25.2,1.2,21.4,1.2z M21.3,11.2c-1.8,0-3.2-1.5-3.2-3.3s1.5-3.2,3.3-3.2s3.2,1.5,3.2,3.3S23.2,11.3,21.3,11.2z M10,9.7
	c1,0.7,2,1.4,3.1,2.1c-0.9,1.2-2,2.1-3.4,2.5c-2.6,0.8-5,0.5-7.1-1.2c-4-3.2-3-9.4,1.8-11.4C7.5,0.4,11,1.3,13,3.9
	c-0.1,0.1,0,0.2,0,0.3l-3,2.1c-0.8-1-1.8-1.7-3.2-1.6C5.9,4.8,5.1,5.2,4.5,5.9c-1.1,1.3-1,3.3,0.3,4.5C6.1,11.5,8.3,11.8,10,9.7z"/>
</svg>
